<svg xmlns="http://www.w3.org/2000/svg" version="1.1" width="1000" height="1000" viewBox="0 0 1000 1000">
    <rect width="1000" height="1000" fill="#181a1b"></rect>
    <g transform="matrix(0.7,0,0,0.7,149.57575757575756,282.1265587044535)">
        <svg viewBox="0 0 396 247" data-background-color="#181a1b" preserveAspectRatio="xMidYMid meet" height="623"
             width="1000" xmlns="http://www.w3.org/2000/svg">
            <defs></defs>
            <g id="tight-bounds" transform="matrix(1,0,0,1,0.2400000000000091,-0.09999999999999432)">
                <svg viewBox="0 0 395.52 247.2" height="247.2" width="395.52">
                    <g>
                        <svg></svg>
                    </g>
                    <g>
                        <svg viewBox="0 0 395.52 247.2" height="247.2" width="395.52">
                            <g>
                                <path d="M108.768 44.496v-44.496h177.984v44.496h-65.685l0 17.528h-46.614v-17.528zM221.067 247.2h-46.614v-62.024l46.614 0z"
                                      fill="#fe0039" data-fill-palette-color="tertiary"></path>
                            </g>
                            <g transform="matrix(1,0,0,1,0,72.84996180601465)">
                                <svg viewBox="0 0 395.52 101.5000763879707" height="101.5000763879707" width="395.52">
                                    <g>
                                        <svg viewBox="0 0 395.52 101.5000763879707" height="101.5000763879707"
                                             width="395.52">
                                            <g>
                                                <svg viewBox="0 0 395.52 101.5000763879707" height="101.5000763879707"
                                                     width="395.52">
                                                    <g>
                                                        <svg viewBox="0 0 395.52 101.5000763879707"
                                                             height="101.5000763879707" width="395.52">
                                                            <g>
                                                                <svg viewBox="0 0 395.52 101.5000763879707"
                                                                     height="101.5000763879707" width="395.52">
                                                                    <g>
                                                                        <svg viewBox="0 0 395.52 74.1909128803668"
                                                                             height="74.1909128803668" width="395.52">
                                                                            <g transform="matrix(1,0,0,1,0,0)">
                                                                                <svg width="395.52"
                                                                                     viewBox="2.7 -35 239.88000000000002 45"
                                                                                     height="74.1909128803668"
                                                                                     data-palette-color="#fe0039">
                                                                                    <path d="M2.7-28.7L2.7-35 27.9-35 27.9-28.7 18.6-28.7 18.6 0 12 0 12-28.7 2.7-28.7ZM51.45-3.6L50.55-3.6Q49.55-1.25 47.75-0.28 45.95 0.7 43.55 0.7L43.55 0.7Q41.3 0.7 39.32-0.15 37.35-1 35.85-2.65 34.35-4.3 33.47-6.65 32.6-9 32.6-12L32.6-12 32.6-12.8Q32.6-15.75 33.45-18.1 34.3-20.45 35.75-22.1 37.2-23.75 39.12-24.63 41.05-25.5 43.25-25.5L43.25-25.5Q45.9-25.5 47.52-24.6 49.15-23.7 50.1-21.8L50.1-21.8 51-21.8 51-24.8 57.3-24.8 57.3-7.5Q57.3-6 58.65-6L58.65-6 59.6-6 59.6 0 55.3 0Q53.6 0 52.52-1 51.45-2 51.45-3.6L51.45-3.6ZM44.95-5.3L44.95-5.3Q47.7-5.3 49.35-7.13 51-8.95 51-12.1L51-12.1 51-12.7Q51-15.85 49.35-17.68 47.7-19.5 44.95-19.5L44.95-19.5Q42.2-19.5 40.55-17.68 38.9-15.85 38.9-12.7L38.9-12.7 38.9-12.1Q38.9-8.95 40.55-7.13 42.2-5.3 44.95-5.3ZM70.1-3.6L70.1 10 63.8 10 63.8-24.8 70.1-24.8 70.1-21.2 71-21.2Q72-23.25 73.9-24.38 75.8-25.5 78.75-25.5L78.75-25.5Q80.95-25.5 82.92-24.65 84.9-23.8 86.37-22.18 87.85-20.55 88.72-18.2 89.6-15.85 89.6-12.85L89.6-12.85 89.6-11.95Q89.6-8.9 88.75-6.55 87.9-4.2 86.45-2.58 85-0.95 83.02-0.13 81.05 0.7 78.75 0.7L78.75 0.7Q77.05 0.7 75.8 0.35 74.55 0 73.62-0.6 72.7-1.2 72.07-1.98 71.45-2.75 71-3.6L71-3.6 70.1-3.6ZM76.7-5.3L76.7-5.3Q79.65-5.3 81.47-7.13 83.3-8.95 83.3-12.1L83.3-12.1 83.3-12.7Q83.3-15.85 81.47-17.68 79.65-19.5 76.7-19.5L76.7-19.5Q73.75-19.5 71.92-17.63 70.1-15.75 70.1-12.7L70.1-12.7 70.1-12.1Q70.1-9.05 71.92-7.18 73.75-5.3 76.7-5.3ZM112.64-3.6L111.74-3.6Q110.74-1.25 108.94-0.28 107.14 0.7 104.74 0.7L104.74 0.7Q102.49 0.7 100.52-0.15 98.54-1 97.04-2.65 95.54-4.3 94.67-6.65 93.79-9 93.79-12L93.79-12 93.79-12.8Q93.79-15.75 94.64-18.1 95.49-20.45 96.94-22.1 98.39-23.75 100.32-24.63 102.24-25.5 104.44-25.5L104.44-25.5Q107.09-25.5 108.72-24.6 110.34-23.7 111.29-21.8L111.29-21.8 112.19-21.8 112.19-24.8 118.49-24.8 118.49-7.5Q118.49-6 119.84-6L119.84-6 120.79-6 120.79 0 116.49 0Q114.79 0 113.72-1 112.64-2 112.64-3.6L112.64-3.6ZM106.14-5.3L106.14-5.3Q108.89-5.3 110.54-7.13 112.19-8.95 112.19-12.1L112.19-12.1 112.19-12.7Q112.19-15.85 110.54-17.68 108.89-19.5 106.14-19.5L106.14-19.5Q103.39-19.5 101.74-17.68 100.09-15.85 100.09-12.7L100.09-12.7 100.09-12.1Q100.09-8.95 101.74-7.13 103.39-5.3 106.14-5.3ZM134.19-17.8L134.19-17.8Q134.19-16.6 135.44-16.07 136.69-15.55 139.99-15.2L139.99-15.2Q143.79-14.8 146.19-12.93 148.59-11.05 148.59-7.7L148.59-7.7 148.59-7.4Q148.59-3.7 145.89-1.5 143.19 0.7 138.29 0.7L138.29 0.7Q135.39 0.7 133.34-0.05 131.29-0.8 129.94-1.93 128.59-3.05 127.87-4.42 127.14-5.8 126.89-7.1L126.89-7.1 132.69-9Q133.09-7.4 134.37-6.2 135.64-5 138.29-5L138.29-5Q140.64-5 141.52-5.73 142.39-6.45 142.39-7.3L142.39-7.3Q142.39-7.8 142.17-8.22 141.94-8.65 141.34-9.03 140.74-9.4 139.72-9.65 138.69-9.9 137.14-10.05L137.14-10.05Q132.94-10.4 130.47-12.23 127.99-14.05 127.99-17.6L127.99-17.6 127.99-17.9Q127.99-19.75 128.79-21.15 129.59-22.55 130.89-23.53 132.19-24.5 133.89-25 135.59-25.5 137.39-25.5L137.39-25.5Q139.74-25.5 141.47-24.93 143.19-24.35 144.39-23.43 145.59-22.5 146.34-21.38 147.09-20.25 147.49-19.2L147.49-19.2 141.79-16.9Q141.34-18.25 140.24-19.03 139.14-19.8 137.39-19.8L137.39-19.8Q135.79-19.8 134.99-19.23 134.19-18.65 134.19-17.8ZM155.69-28.7L155.69-35 180.89-35 180.89-28.7 171.59-28.7 171.59 0 164.99 0 164.99-28.7 155.69-28.7ZM211.79-12.7L211.79-12.1Q211.79-9 210.74-6.63 209.69-4.25 207.89-2.63 206.09-1 203.76-0.15 201.44 0.7 198.89 0.7L198.89 0.7Q196.34 0.7 194.01-0.15 191.69-1 189.89-2.63 188.09-4.25 187.03-6.63 185.99-9 185.99-12.1L185.99-12.1 185.99-12.7Q185.99-15.75 187.03-18.13 188.09-20.5 189.89-22.15 191.69-23.8 194.01-24.65 196.34-25.5 198.89-25.5L198.89-25.5Q201.44-25.5 203.76-24.65 206.09-23.8 207.89-22.15 209.69-20.5 210.74-18.13 211.79-15.75 211.79-12.7L211.79-12.7ZM198.89-5.3L198.89-5.3Q200.24-5.3 201.44-5.75 202.64-6.2 203.54-7.05 204.44-7.9 204.96-9.13 205.49-10.35 205.49-11.9L205.49-11.9 205.49-12.9Q205.49-14.45 204.96-15.68 204.44-16.9 203.54-17.75 202.64-18.6 201.44-19.05 200.24-19.5 198.89-19.5L198.89-19.5Q197.53-19.5 196.34-19.05 195.14-18.6 194.24-17.75 193.34-16.9 192.81-15.68 192.28-14.45 192.28-12.9L192.28-12.9 192.28-11.9Q192.28-10.35 192.81-9.13 193.34-7.9 194.24-7.05 195.14-6.2 196.34-5.75 197.53-5.3 198.89-5.3ZM223.08-3.6L223.08 10 216.78 10 216.78-24.8 223.08-24.8 223.08-21.2 223.98-21.2Q224.98-23.25 226.88-24.38 228.78-25.5 231.73-25.5L231.73-25.5Q233.93-25.5 235.91-24.65 237.88-23.8 239.36-22.18 240.83-20.55 241.71-18.2 242.58-15.85 242.58-12.85L242.58-12.85 242.58-11.95Q242.58-8.9 241.73-6.55 240.88-4.2 239.43-2.58 237.98-0.95 236.01-0.13 234.03 0.7 231.73 0.7L231.73 0.7Q230.03 0.7 228.78 0.35 227.53 0 226.61-0.6 225.68-1.2 225.06-1.98 224.43-2.75 223.98-3.6L223.98-3.6 223.08-3.6ZM229.68-5.3L229.68-5.3Q232.63-5.3 234.46-7.13 236.28-8.95 236.28-12.1L236.28-12.1 236.28-12.7Q236.28-15.85 234.46-17.68 232.63-19.5 229.68-19.5L229.68-19.5Q226.73-19.5 224.91-17.63 223.08-15.75 223.08-12.7L223.08-12.7 223.08-12.1Q223.08-9.05 224.91-7.18 226.73-5.3 229.68-5.3Z"
                                                                                          opacity="1"
                                                                                          transform="matrix(1,0,0,1,0,0)"
                                                                                          fill="#fe0039"
                                                                                          class="undefined-text-0"
                                                                                          data-fill-palette-color="primary"
                                                                                          id="text-0"></path>
                                                                                </svg>
                                                                            </g>
                                                                        </svg>
                                                                    </g>
                                                                    <g transform="matrix(1,0,0,1,0,85.01714765152144)">
                                                                        <svg viewBox="0 0 395.52 16.48292873644926"
                                                                             height="16.48292873644926" width="395.52">
                                                                            <g transform="matrix(1,0,0,1,0,0)">
                                                                                <svg width="395.52"
                                                                                     viewBox="2.4 -36.9 1125.31 46.9"
                                                                                     height="16.48292873644926"
                                                                                     data-palette-color="#ffffff">
                                                                                    <path d="M15.4-5.3L15.4-5.3Q17.3-5.3 18.53-5.88 19.75-6.45 20.43-7.43 21.1-8.4 21.35-9.68 21.6-10.95 21.6-12.3L21.6-12.3 21.6-13.2 28.2-13.2 28.2-12.3Q28.2-6.05 24.93-2.68 21.65 0.7 15.4 0.7L15.4 0.7Q9.4 0.7 5.9-2.95 2.4-6.6 2.4-13.6L2.4-13.6 2.4-21.4Q2.4-24.75 3.3-27.43 4.2-30.1 5.9-31.93 7.6-33.75 10-34.73 12.4-35.7 15.4-35.7L15.4-35.7Q18.5-35.7 20.9-34.8 23.3-33.9 24.93-32.2 26.55-30.5 27.38-28.1 28.2-25.7 28.2-22.7L28.2-22.7 28.2-21.8 21.6-21.8 21.6-22.7Q21.6-23.95 21.3-25.2 21-26.45 20.3-27.45 19.6-28.45 18.4-29.08 17.2-29.7 15.4-29.7L15.4-29.7Q13.75-29.7 12.55-29.08 11.35-28.45 10.55-27.38 9.75-26.3 9.38-24.88 9-23.45 9-21.9L9-21.9 9-13.1Q9-11.4 9.35-9.98 9.7-8.55 10.45-7.5 11.2-6.45 12.43-5.88 13.65-5.3 15.4-5.3ZM58.8-12.7L58.8-12.1Q58.8-9 57.75-6.63 56.7-4.25 54.9-2.63 53.1-1 50.77-0.15 48.45 0.7 45.9 0.7L45.9 0.7Q43.35 0.7 41.02-0.15 38.7-1 36.9-2.63 35.1-4.25 34.05-6.63 33-9 33-12.1L33-12.1 33-12.7Q33-15.75 34.05-18.13 35.1-20.5 36.9-22.15 38.7-23.8 41.02-24.65 43.35-25.5 45.9-25.5L45.9-25.5Q48.45-25.5 50.77-24.65 53.1-23.8 54.9-22.15 56.7-20.5 57.75-18.13 58.8-15.75 58.8-12.7L58.8-12.7ZM45.9-5.3L45.9-5.3Q47.25-5.3 48.45-5.75 49.65-6.2 50.55-7.05 51.45-7.9 51.97-9.13 52.5-10.35 52.5-11.9L52.5-11.9 52.5-12.9Q52.5-14.45 51.97-15.68 51.45-16.9 50.55-17.75 49.65-18.6 48.45-19.05 47.25-19.5 45.9-19.5L45.9-19.5Q44.55-19.5 43.35-19.05 42.15-18.6 41.25-17.75 40.35-16.9 39.82-15.68 39.3-14.45 39.3-12.9L39.3-12.9 39.3-11.9Q39.3-10.35 39.82-9.13 40.35-7.9 41.25-7.05 42.15-6.2 43.35-5.75 44.55-5.3 45.9-5.3ZM90-19.2L90 0 83.7 0 83.7-17.4Q83.7-18.45 83.17-18.98 82.65-19.5 81.8-19.5L81.8-19.5Q80.8-19.5 80.22-18.9 79.65-18.3 79.65-17.1L79.65-17.1 79.65 0 73.35 0 73.35-17.4Q73.35-18.45 72.77-18.98 72.2-19.5 71.4-19.5L71.4-19.5Q70.5-19.5 69.9-18.9 69.3-18.3 69.3-17.1L69.3-17.1 69.3 0 63 0 63-24.8 69.3-24.8 69.3-22.4 70.2-22.4Q70.5-23.75 71.57-24.63 72.65-25.5 74.4-25.5L74.4-25.5Q76.05-25.5 77.2-24.63 78.35-23.75 78.75-22.4L78.75-22.4 79.65-22.4Q80.05-23.75 81.32-24.63 82.6-25.5 84.5-25.5L84.5-25.5Q87-25.5 88.5-23.83 90-22.15 90-19.2L90-19.2ZM100.69-3.6L100.69 10 94.39 10 94.39-24.8 100.69-24.8 100.69-21.2 101.59-21.2Q102.59-23.25 104.49-24.38 106.39-25.5 109.34-25.5L109.34-25.5Q111.54-25.5 113.52-24.65 115.49-23.8 116.97-22.18 118.44-20.55 119.32-18.2 120.19-15.85 120.19-12.85L120.19-12.85 120.19-11.95Q120.19-8.9 119.34-6.55 118.49-4.2 117.04-2.58 115.59-0.95 113.62-0.13 111.64 0.7 109.34 0.7L109.34 0.7Q107.64 0.7 106.39 0.35 105.14 0 104.22-0.6 103.29-1.2 102.67-1.98 102.04-2.75 101.59-3.6L101.59-3.6 100.69-3.6ZM107.29-5.3L107.29-5.3Q110.24-5.3 112.07-7.13 113.89-8.95 113.89-12.1L113.89-12.1 113.89-12.7Q113.89-15.85 112.07-17.68 110.24-19.5 107.29-19.5L107.29-19.5Q104.34-19.5 102.52-17.63 100.69-15.75 100.69-12.7L100.69-12.7 100.69-12.1Q100.69-9.05 102.52-7.18 104.34-5.3 107.29-5.3ZM143.24-3.6L142.34-3.6Q141.34-1.25 139.54-0.28 137.74 0.7 135.34 0.7L135.34 0.7Q133.09 0.7 131.12-0.15 129.14-1 127.64-2.65 126.14-4.3 125.27-6.65 124.39-9 124.39-12L124.39-12 124.39-12.8Q124.39-15.75 125.24-18.1 126.09-20.45 127.54-22.1 128.99-23.75 130.92-24.63 132.84-25.5 135.04-25.5L135.04-25.5Q137.69-25.5 139.32-24.6 140.94-23.7 141.89-21.8L141.89-21.8 142.79-21.8 142.79-24.8 149.09-24.8 149.09-7.5Q149.09-6 150.44-6L150.44-6 151.39-6 151.39 0 147.09 0Q145.39 0 144.32-1 143.24-2 143.24-3.6L143.24-3.6ZM136.74-5.3L136.74-5.3Q139.49-5.3 141.14-7.13 142.79-8.95 142.79-12.1L142.79-12.1 142.79-12.7Q142.79-15.85 141.14-17.68 139.49-19.5 136.74-19.5L136.74-19.5Q133.99-19.5 132.34-17.68 130.69-15.85 130.69-12.7L130.69-12.7 130.69-12.1Q130.69-8.95 132.34-7.13 133.99-5.3 136.74-5.3ZM155.69-18.8L155.69-24.8 166.19-24.8 166.19-21.2 167.09-21.2Q167.79-23.25 169.46-24.38 171.14-25.5 173.49-25.5L173.49-25.5Q177.19-25.5 179.44-23.18 181.69-20.85 181.69-16.1L181.69-16.1 181.69-15 175.19-14.4 175.19-15.1Q175.19-17.15 174.14-18.38 173.09-19.6 170.99-19.6L170.99-19.6Q168.89-19.6 167.69-18.15 166.49-16.7 166.49-14L166.49-14 166.49-6 172.19-6 172.19 0 155.09 0 155.09-6 160.19-6 160.19-18.8 155.69-18.8ZM186.78-18.8L186.78-24.8 194.14-24.8 194.14-35 200.44-35 200.44-24.8 209.39-24.8 209.39-18.8 200.44-18.8 200.44-7.5Q200.44-6 201.78-6L201.78-6 208.49-6 208.49 0 197.99 0Q196.28 0 195.21-1.1 194.14-2.2 194.14-3.9L194.14-3.9 194.14-18.8 186.78-18.8ZM241.83-10.35L223.63-10.35Q223.68-9.25 224.16-8.33 224.63-7.4 225.46-6.73 226.28-6.05 227.36-5.68 228.43-5.3 229.63-5.3L229.63-5.3Q231.98-5.3 233.23-6.13 234.48-6.95 235.03-8.1L235.03-8.1 240.43-5.1Q239.98-4.15 239.18-3.13 238.38-2.1 237.11-1.25 235.83-0.4 234.01 0.15 232.18 0.7 229.73 0.7L229.73 0.7Q226.93 0.7 224.63-0.2 222.33-1.1 220.66-2.8 218.98-4.5 218.06-6.95 217.13-9.4 217.13-12.5L217.13-12.5 217.13-12.8Q217.13-15.65 218.11-18 219.08-20.35 220.78-22 222.48-23.65 224.76-24.58 227.03-25.5 229.63-25.5L229.63-25.5Q232.83-25.5 235.13-24.38 237.43-23.25 238.93-21.53 240.43-19.8 241.13-17.73 241.83-15.65 241.83-13.7L241.83-13.7 241.83-10.35ZM229.58-19.8L229.58-19.8Q227.18-19.8 225.68-18.57 224.18-17.35 223.73-15.75L223.73-15.75 235.43-15.75Q235.13-17.5 233.56-18.65 231.98-19.8 229.58-19.8ZM296.08-11.8L296.08-24.8 302.38-24.8 302.38 6.1Q302.38 7.8 301.3 8.9 300.23 10 298.53 10L298.53 10 283.78 10 283.78 4 294.73 4Q296.08 4 296.08 2.5L296.08 2.5 296.08-3.6 295.18-3.6Q293.53 0.7 288.08 0.7L288.08 0.7Q286.23 0.7 284.63 0.1 283.03-0.5 281.83-1.75 280.63-3 279.95-4.88 279.28-6.75 279.28-9.3L279.28-9.3 279.28-24.8 285.58-24.8 285.58-10.6Q285.58-7.95 286.83-6.48 288.08-5 290.58-5L290.58-5Q293.43-5 294.75-6.83 296.08-8.65 296.08-11.8L296.08-11.8ZM345.82 0L338.72-24.8 345.52-24.8 351.37-3 352.27-3 358.12-24.8 364.92-24.8 357.82 0 345.82 0ZM388.02-3.6L387.12-3.6Q386.12-1.25 384.32-0.28 382.52 0.7 380.12 0.7L380.12 0.7Q377.87 0.7 375.9-0.15 373.92-1 372.42-2.65 370.92-4.3 370.05-6.65 369.17-9 369.17-12L369.17-12 369.17-12.8Q369.17-15.75 370.02-18.1 370.87-20.45 372.32-22.1 373.77-23.75 375.7-24.63 377.62-25.5 379.82-25.5L379.82-25.5Q382.47-25.5 384.1-24.6 385.72-23.7 386.67-21.8L386.67-21.8 387.57-21.8 387.57-24.8 393.87-24.8 393.87-7.5Q393.87-6 395.22-6L395.22-6 396.17-6 396.17 0 391.87 0Q390.17 0 389.1-1 388.02-2 388.02-3.6L388.02-3.6ZM381.52-5.3L381.52-5.3Q384.27-5.3 385.92-7.13 387.57-8.95 387.57-12.1L387.57-12.1 387.57-12.7Q387.57-15.85 385.92-17.68 384.27-19.5 381.52-19.5L381.52-19.5Q378.77-19.5 377.12-17.68 375.47-15.85 375.47-12.7L375.47-12.7 375.47-12.1Q375.47-8.95 377.12-7.13 378.77-5.3 381.52-5.3ZM401.52 0L401.52-6 410.22-6 410.22-29 401.82-29 401.82-35 416.52-35 416.52-6 424.62-6 424.62 0 401.52 0ZM456.57-12.7L456.57-12.1Q456.57-9 455.52-6.63 454.47-4.25 452.67-2.63 450.87-1 448.54-0.15 446.22 0.7 443.67 0.7L443.67 0.7Q441.12 0.7 438.79-0.15 436.47-1 434.67-2.63 432.87-4.25 431.82-6.63 430.77-9 430.77-12.1L430.77-12.1 430.77-12.7Q430.77-15.75 431.82-18.13 432.87-20.5 434.67-22.15 436.47-23.8 438.79-24.65 441.12-25.5 443.67-25.5L443.67-25.5Q446.22-25.5 448.54-24.65 450.87-23.8 452.67-22.15 454.47-20.5 455.52-18.13 456.57-15.75 456.57-12.7L456.57-12.7ZM443.67-5.3L443.67-5.3Q445.02-5.3 446.22-5.75 447.42-6.2 448.32-7.05 449.22-7.9 449.74-9.13 450.27-10.35 450.27-11.9L450.27-11.9 450.27-12.9Q450.27-14.45 449.74-15.68 449.22-16.9 448.32-17.75 447.42-18.6 446.22-19.05 445.02-19.5 443.67-19.5L443.67-19.5Q442.32-19.5 441.12-19.05 439.92-18.6 439.02-17.75 438.12-16.9 437.59-15.68 437.07-14.45 437.07-12.9L437.07-12.9 437.07-11.9Q437.07-10.35 437.59-9.13 438.12-7.9 439.02-7.05 439.92-6.2 441.12-5.75 442.32-5.3 443.67-5.3ZM461.66-18.8L461.66-24.8 472.16-24.8 472.16-21.2 473.06-21.2Q473.76-23.25 475.44-24.38 477.11-25.5 479.46-25.5L479.46-25.5Q483.16-25.5 485.41-23.18 487.66-20.85 487.66-16.1L487.66-16.1 487.66-15 481.16-14.4 481.16-15.1Q481.16-17.15 480.11-18.38 479.06-19.6 476.96-19.6L476.96-19.6Q474.86-19.6 473.66-18.15 472.46-16.7 472.46-14L472.46-14 472.46-6 478.16-6 478.16 0 461.06 0 461.06-6 466.16-6 466.16-18.8 461.66-18.8ZM510.41-3.6L509.51-3.6Q508.51-1.25 506.71-0.28 504.91 0.7 502.51 0.7L502.51 0.7Q500.26 0.7 498.29-0.15 496.31-1 494.81-2.65 493.31-4.3 492.44-6.65 491.56-9 491.56-12L491.56-12 491.56-12.8Q491.56-15.75 492.41-18.1 493.26-20.45 494.71-22.1 496.16-23.75 498.09-24.63 500.01-25.5 502.21-25.5L502.21-25.5Q504.86-25.5 506.49-24.6 508.11-23.7 509.06-21.8L509.06-21.8 509.96-21.8 509.96-24.8 516.26-24.8 516.26-7.5Q516.26-6 517.61-6L517.61-6 518.56-6 518.56 0 514.26 0Q512.56 0 511.49-1 510.41-2 510.41-3.6L510.41-3.6ZM503.91-5.3L503.91-5.3Q506.66-5.3 508.31-7.13 509.96-8.95 509.96-12.1L509.96-12.1 509.96-12.7Q509.96-15.85 508.31-17.68 506.66-19.5 503.91-19.5L503.91-19.5Q501.16-19.5 499.51-17.68 497.86-15.85 497.86-12.7L497.86-12.7 497.86-12.1Q497.86-8.95 499.51-7.13 501.16-5.3 503.91-5.3ZM553.96-18.8L553.96-24.8 561.31-24.8 561.31-35 567.61-35 567.61-24.8 576.56-24.8 576.56-18.8 567.61-18.8 567.61-7.5Q567.61-6 568.96-6L568.96-6 575.66-6 575.66 0 565.16 0Q563.46 0 562.38-1.1 561.31-2.2 561.31-3.9L561.31-3.9 561.31-18.8 553.96-18.8ZM602.05-11.8L602.05-24.8 608.35-24.8 608.35 0 602.05 0 602.05-3.6 601.15-3.6Q599.5 0.7 594.05 0.7L594.05 0.7Q592.2 0.7 590.6 0.1 589-0.5 587.8-1.75 586.6-3 585.93-4.88 585.25-6.75 585.25-9.3L585.25-9.3 585.25-24.8 591.55-24.8 591.55-10.6Q591.55-7.95 592.8-6.48 594.05-5 596.55-5L596.55-5Q599.4-5 600.73-6.83 602.05-8.65 602.05-11.8L602.05-11.8ZM623.75-17.8L623.75-17.8Q623.75-16.6 625-16.07 626.25-15.55 629.55-15.2L629.55-15.2Q633.35-14.8 635.75-12.93 638.15-11.05 638.15-7.7L638.15-7.7 638.15-7.4Q638.15-3.7 635.45-1.5 632.75 0.7 627.85 0.7L627.85 0.7Q624.95 0.7 622.9-0.05 620.85-0.8 619.5-1.93 618.15-3.05 617.43-4.42 616.7-5.8 616.45-7.1L616.45-7.1 622.25-9Q622.65-7.4 623.93-6.2 625.2-5 627.85-5L627.85-5Q630.2-5 631.08-5.73 631.95-6.45 631.95-7.3L631.95-7.3Q631.95-7.8 631.73-8.22 631.5-8.65 630.9-9.03 630.3-9.4 629.28-9.65 628.25-9.9 626.7-10.05L626.7-10.05Q622.5-10.4 620.03-12.23 617.55-14.05 617.55-17.6L617.55-17.6 617.55-17.9Q617.55-19.75 618.35-21.15 619.15-22.55 620.45-23.53 621.75-24.5 623.45-25 625.15-25.5 626.95-25.5L626.95-25.5Q629.3-25.5 631.03-24.93 632.75-24.35 633.95-23.43 635.15-22.5 635.9-21.38 636.65-20.25 637.05-19.2L637.05-19.2 631.35-16.9Q630.9-18.25 629.8-19.03 628.7-19.8 626.95-19.8L626.95-19.8Q625.35-19.8 624.55-19.23 623.75-18.65 623.75-17.8ZM676.35-18.8L676.35-24.8 683.69-24.8 683.69-35 690-35 690-24.8 698.94-24.8 698.94-18.8 690-18.8 690-7.5Q690-6 691.35-6L691.35-6 698.04-6 698.04 0 687.54 0Q685.85 0 684.77-1.1 683.69-2.2 683.69-3.9L683.69-3.9 683.69-18.8 676.35-18.8ZM724.59-3.6L723.69-3.6Q722.69-1.25 720.89-0.28 719.09 0.7 716.69 0.7L716.69 0.7Q714.44 0.7 712.47-0.15 710.49-1 708.99-2.65 707.49-4.3 706.62-6.65 705.74-9 705.74-12L705.74-12 705.74-12.8Q705.74-15.75 706.59-18.1 707.44-20.45 708.89-22.1 710.34-23.75 712.27-24.63 714.19-25.5 716.39-25.5L716.39-25.5Q719.04-25.5 720.67-24.6 722.29-23.7 723.24-21.8L723.24-21.8 724.14-21.8 724.14-24.8 730.44-24.8 730.44-7.5Q730.44-6 731.79-6L731.79-6 732.74-6 732.74 0 728.44 0Q726.74 0 725.67-1 724.59-2 724.59-3.6L724.59-3.6ZM718.09-5.3L718.09-5.3Q720.84-5.3 722.49-7.13 724.14-8.95 724.14-12.1L724.14-12.1 724.14-12.7Q724.14-15.85 722.49-17.68 720.84-19.5 718.09-19.5L718.09-19.5Q715.34-19.5 713.69-17.68 712.04-15.85 712.04-12.7L712.04-12.7 712.04-12.1Q712.04-8.95 713.69-7.13 715.34-5.3 718.09-5.3ZM743.24-3.6L743.24 10 736.94 10 736.94-24.8 743.24-24.8 743.24-21.2 744.14-21.2Q745.14-23.25 747.04-24.38 748.94-25.5 751.89-25.5L751.89-25.5Q754.09-25.5 756.06-24.65 758.04-23.8 759.51-22.18 760.99-20.55 761.86-18.2 762.74-15.85 762.74-12.85L762.74-12.85 762.74-11.95Q762.74-8.9 761.89-6.55 761.04-4.2 759.59-2.58 758.14-0.95 756.16-0.13 754.19 0.7 751.89 0.7L751.89 0.7Q750.19 0.7 748.94 0.35 747.69 0 746.76-0.6 745.84-1.2 745.21-1.98 744.59-2.75 744.14-3.6L744.14-3.6 743.24-3.6ZM749.84-5.3L749.84-5.3Q752.79-5.3 754.61-7.13 756.44-8.95 756.44-12.1L756.44-12.1 756.44-12.7Q756.44-15.85 754.61-17.68 752.79-19.5 749.84-19.5L749.84-19.5Q746.89-19.5 745.06-17.63 743.24-15.75 743.24-12.7L743.24-12.7 743.24-12.1Q743.24-9.05 745.06-7.18 746.89-5.3 749.84-5.3ZM785.79-3.6L784.89-3.6Q783.89-1.25 782.09-0.28 780.29 0.7 777.89 0.7L777.89 0.7Q775.64 0.7 773.66-0.15 771.69-1 770.19-2.65 768.69-4.3 767.81-6.65 766.94-9 766.94-12L766.94-12 766.94-12.8Q766.94-15.75 767.79-18.1 768.64-20.45 770.09-22.1 771.54-23.75 773.46-24.63 775.39-25.5 777.59-25.5L777.59-25.5Q780.24-25.5 781.86-24.6 783.49-23.7 784.44-21.8L784.44-21.8 785.34-21.8 785.34-24.8 791.64-24.8 791.64-7.5Q791.64-6 792.99-6L792.99-6 793.94-6 793.94 0 789.64 0Q787.94 0 786.86-1 785.79-2 785.79-3.6L785.79-3.6ZM779.29-5.3L779.29-5.3Q782.04-5.3 783.69-7.13 785.34-8.95 785.34-12.1L785.34-12.1 785.34-12.7Q785.34-15.85 783.69-17.68 782.04-19.5 779.29-19.5L779.29-19.5Q776.54-19.5 774.89-17.68 773.24-15.85 773.24-12.7L773.24-12.7 773.24-12.1Q773.24-8.95 774.89-7.13 776.54-5.3 779.29-5.3ZM807.33-17.8L807.33-17.8Q807.33-16.6 808.58-16.07 809.83-15.55 813.13-15.2L813.13-15.2Q816.93-14.8 819.33-12.93 821.73-11.05 821.73-7.7L821.73-7.7 821.73-7.4Q821.73-3.7 819.03-1.5 816.33 0.7 811.43 0.7L811.43 0.7Q808.53 0.7 806.48-0.05 804.43-0.8 803.08-1.93 801.73-3.05 801.01-4.42 800.28-5.8 800.03-7.1L800.03-7.1 805.83-9Q806.23-7.4 807.51-6.2 808.78-5 811.43-5L811.43-5Q813.78-5 814.66-5.73 815.53-6.45 815.53-7.3L815.53-7.3Q815.53-7.8 815.31-8.22 815.08-8.65 814.48-9.03 813.88-9.4 812.86-9.65 811.83-9.9 810.28-10.05L810.28-10.05Q806.08-10.4 803.61-12.23 801.13-14.05 801.13-17.6L801.13-17.6 801.13-17.9Q801.13-19.75 801.93-21.15 802.73-22.55 804.03-23.53 805.33-24.5 807.03-25 808.73-25.5 810.53-25.5L810.53-25.5Q812.88-25.5 814.61-24.93 816.33-24.35 817.53-23.43 818.73-22.5 819.48-21.38 820.23-20.25 820.63-19.2L820.63-19.2 814.93-16.9Q814.48-18.25 813.38-19.03 812.28-19.8 810.53-19.8L810.53-19.8Q808.93-19.8 808.13-19.23 807.33-18.65 807.33-17.8ZM860.43-18.8L860.43-24.8 867.48-24.8 867.48-29.9Q867.48-32.05 868.93-33.52 870.38-35 872.53-35L872.53-35 882.63-35 882.63-29 875.13-29Q873.78-29 873.78-27.5L873.78-27.5 873.78-24.8 883.53-24.8 883.53-18.8 873.78-18.8 873.78 0 867.48 0 867.48-18.8 860.43-18.8ZM908.18-3.6L907.28-3.6Q906.28-1.25 904.48-0.28 902.68 0.7 900.28 0.7L900.28 0.7Q898.03 0.7 896.05-0.15 894.08-1 892.58-2.65 891.08-4.3 890.2-6.65 889.33-9 889.33-12L889.33-12 889.33-12.8Q889.33-15.75 890.18-18.1 891.03-20.45 892.48-22.1 893.93-23.75 895.85-24.63 897.78-25.5 899.98-25.5L899.98-25.5Q902.63-25.5 904.25-24.6 905.88-23.7 906.83-21.8L906.83-21.8 907.73-21.8 907.73-24.8 914.03-24.8 914.03-7.5Q914.03-6 915.38-6L915.38-6 916.33-6 916.33 0 912.03 0Q910.33 0 909.25-1 908.18-2 908.18-3.6L908.18-3.6ZM901.68-5.3L901.68-5.3Q904.43-5.3 906.08-7.13 907.73-8.95 907.73-12.1L907.73-12.1 907.73-12.7Q907.73-15.85 906.08-17.68 904.43-19.5 901.68-19.5L901.68-19.5Q898.93-19.5 897.28-17.68 895.63-15.85 895.63-12.7L895.63-12.7 895.63-12.1Q895.63-8.95 897.28-7.13 898.93-5.3 901.68-5.3ZM927.17 0L920.07-24.8 926.87-24.8 932.72-3 933.62-3 939.47-24.8 946.27-24.8 939.17 0 927.17 0ZM976.72-12.7L976.72-12.1Q976.72-9 975.67-6.63 974.62-4.25 972.82-2.63 971.02-1 968.7-0.15 966.37 0.7 963.82 0.7L963.82 0.7Q961.27 0.7 958.95-0.15 956.62-1 954.82-2.63 953.02-4.25 951.97-6.63 950.92-9 950.92-12.1L950.92-12.1 950.92-12.7Q950.92-15.75 951.97-18.13 953.02-20.5 954.82-22.15 956.62-23.8 958.95-24.65 961.27-25.5 963.82-25.5L963.82-25.5Q966.37-25.5 968.7-24.65 971.02-23.8 972.82-22.15 974.62-20.5 975.67-18.13 976.72-15.75 976.72-12.7L976.72-12.7ZM963.82-5.3L963.82-5.3Q965.17-5.3 966.37-5.75 967.57-6.2 968.47-7.05 969.37-7.9 969.9-9.13 970.42-10.35 970.42-11.9L970.42-11.9 970.42-12.9Q970.42-14.45 969.9-15.68 969.37-16.9 968.47-17.75 967.57-18.6 966.37-19.05 965.17-19.5 963.82-19.5L963.82-19.5Q962.47-19.5 961.27-19.05 960.07-18.6 959.17-17.75 958.27-16.9 957.75-15.68 957.22-14.45 957.22-12.9L957.22-12.9 957.22-11.9Q957.22-10.35 957.75-9.13 958.27-7.9 959.17-7.05 960.07-6.2 961.27-5.75 962.47-5.3 963.82-5.3ZM981.82-18.8L981.82-24.8 992.32-24.8 992.32-21.2 993.22-21.2Q993.92-23.25 995.59-24.38 997.27-25.5 999.62-25.5L999.62-25.5Q1003.32-25.5 1005.57-23.18 1007.82-20.85 1007.82-16.1L1007.82-16.1 1007.82-15 1001.32-14.4 1001.32-15.1Q1001.32-17.15 1000.27-18.38 999.22-19.6 997.12-19.6L997.12-19.6Q995.02-19.6 993.82-18.15 992.62-16.7 992.62-14L992.62-14 992.62-6 998.32-6 998.32 0 981.22 0 981.22-6 986.32-6 986.32-18.8 981.82-18.8ZM1014.07 0L1014.07-6 1022.47-6 1022.47-18.8 1014.67-18.8 1014.67-24.8 1028.77-24.8 1028.77-6 1035.97-6 1035.97 0 1014.07 0ZM1030.32-32.15L1030.32-32.15Q1030.32-31.15 1029.94-30.28 1029.57-29.4 1028.92-28.78 1028.27-28.15 1027.39-27.78 1026.52-27.4 1025.57-27.4L1025.57-27.4Q1024.57-27.4 1023.72-27.78 1022.87-28.15 1022.22-28.78 1021.57-29.4 1021.19-30.28 1020.82-31.15 1020.82-32.15L1020.82-32.15Q1020.82-33.15 1021.19-34.02 1021.57-34.9 1022.22-35.52 1022.87-36.15 1023.72-36.52 1024.57-36.9 1025.57-36.9L1025.57-36.9Q1026.52-36.9 1027.39-36.52 1028.27-36.15 1028.92-35.52 1029.57-34.9 1029.94-34.02 1030.32-33.15 1030.32-32.15ZM1043.51-18.8L1043.51-24.8 1050.86-24.8 1050.86-35 1057.16-35 1057.16-24.8 1066.11-24.8 1066.11-18.8 1057.16-18.8 1057.16-7.5Q1057.16-6 1058.51-6L1058.51-6 1065.21-6 1065.21 0 1054.71 0Q1053.01 0 1051.94-1.1 1050.86-2.2 1050.86-3.9L1050.86-3.9 1050.86-18.8 1043.51-18.8ZM1091.76-3.6L1090.86-3.6Q1089.86-1.25 1088.06-0.28 1086.26 0.7 1083.86 0.7L1083.86 0.7Q1081.61 0.7 1079.64-0.15 1077.66-1 1076.16-2.65 1074.66-4.3 1073.79-6.65 1072.91-9 1072.91-12L1072.91-12 1072.91-12.8Q1072.91-15.75 1073.76-18.1 1074.61-20.45 1076.06-22.1 1077.51-23.75 1079.44-24.63 1081.36-25.5 1083.56-25.5L1083.56-25.5Q1086.21-25.5 1087.84-24.6 1089.46-23.7 1090.41-21.8L1090.41-21.8 1091.31-21.8 1091.31-24.8 1097.61-24.8 1097.61-7.5Q1097.61-6 1098.96-6L1098.96-6 1099.91-6 1099.91 0 1095.61 0Q1093.91 0 1092.84-1 1091.76-2 1091.76-3.6L1091.76-3.6ZM1085.26-5.3L1085.26-5.3Q1088.01-5.3 1089.66-7.13 1091.31-8.95 1091.31-12.1L1091.31-12.1 1091.31-12.7Q1091.31-15.85 1089.66-17.68 1088.01-19.5 1085.26-19.5L1085.26-19.5Q1082.51-19.5 1080.86-17.68 1079.21-15.85 1079.21-12.7L1079.21-12.7 1079.21-12.1Q1079.21-8.95 1080.86-7.13 1082.51-5.3 1085.26-5.3ZM1113.31-17.8L1113.31-17.8Q1113.31-16.6 1114.56-16.07 1115.81-15.55 1119.11-15.2L1119.11-15.2Q1122.91-14.8 1125.31-12.93 1127.71-11.05 1127.71-7.7L1127.71-7.7 1127.71-7.4Q1127.71-3.7 1125.01-1.5 1122.31 0.7 1117.41 0.7L1117.41 0.7Q1114.51 0.7 1112.46-0.05 1110.41-0.8 1109.06-1.93 1107.71-3.05 1106.98-4.42 1106.26-5.8 1106.01-7.1L1106.01-7.1 1111.81-9Q1112.21-7.4 1113.48-6.2 1114.76-5 1117.41-5L1117.41-5Q1119.76-5 1120.63-5.73 1121.51-6.45 1121.51-7.3L1121.51-7.3Q1121.51-7.8 1121.28-8.22 1121.06-8.65 1120.46-9.03 1119.86-9.4 1118.83-9.65 1117.81-9.9 1116.26-10.05L1116.26-10.05Q1112.06-10.4 1109.58-12.23 1107.11-14.05 1107.11-17.6L1107.11-17.6 1107.11-17.9Q1107.11-19.75 1107.91-21.15 1108.71-22.55 1110.01-23.53 1111.31-24.5 1113.01-25 1114.71-25.5 1116.51-25.5L1116.51-25.5Q1118.86-25.5 1120.58-24.93 1122.31-24.35 1123.51-23.43 1124.71-22.5 1125.46-21.38 1126.21-20.25 1126.61-19.2L1126.61-19.2 1120.91-16.9Q1120.46-18.25 1119.36-19.03 1118.26-19.8 1116.51-19.8L1116.51-19.8Q1114.91-19.8 1114.11-19.23 1113.31-18.65 1113.31-17.8Z"
                                                                                          opacity="1"
                                                                                          transform="matrix(1,0,0,1,0,0)"
                                                                                          fill="#ffffff"
                                                                                          class="undefined-text-1"
                                                                                          data-fill-palette-color="secondary"
                                                                                          id="text-1"></path>
                                                                                </svg>
                                                                            </g>
                                                                        </svg>
                                                                    </g>
                                                                </svg>
                                                            </g>
                                                        </svg>
                                                    </g>
                                                    <g></g>
                                                </svg>
                                            </g>
                                        </svg>
                                    </g>
                                </svg>
                            </g>
                        </svg>
                    </g>
                </svg>
                <rect width="395.52" height="247.2" fill="none" stroke="none" visibility="hidden"></rect>
            </g>
        </svg>
    </g>
</svg>